<svg width="24" height="24" viewBox="0 0 24 24" fill="none" xmlns="http://www.w3.org/2000/svg">
<path d="M8 16.184V15.5C8 14.652 8.512 13.905 9.287 13.453C8.62524 13.1717 8.01071 12.7902 7.465 12.322C6.561 13.136 6 14.26 6 15.5V16.184C5.41685 16.3897 4.9116 16.7708 4.55354 17.2749C4.19548 17.7791 4.00213 18.3816 4 19C4 20.654 5.346 22 7 22C8.654 22 10 20.654 10 19C9.99787 18.3816 9.80452 17.7791 9.44646 17.2749C9.0884 16.7708 8.58315 16.3897 8 16.184ZM7 20C6.74252 19.9885 6.49941 19.8781 6.32128 19.6918C6.14315 19.5055 6.04373 19.2577 6.04373 19C6.04373 18.7423 6.14315 18.4945 6.32128 18.3082C6.49941 18.1219 6.74252 18.0115 7 18C7.25748 18.0115 7.50059 18.1219 7.67872 18.3082C7.85685 18.4945 7.95627 18.7423 7.95627 19C7.95627 19.2577 7.85685 19.5055 7.67872 19.6918C7.50059 19.8781 7.25748 19.9885 7 20ZM16 7.815V8.166C16 9.151 15.465 10.018 14.655 10.526C15.3151 10.7978 15.9298 11.1687 16.478 11.626C17.414 10.748 18 9.524 18 8.167V7.816C18.5832 7.61029 19.0884 7.22924 19.4465 6.72509C19.8045 6.22093 19.9979 5.61836 20 5C20 3.346 18.654 2 17 2C15.346 2 14 3.346 14 5C14 6.302 14.839 7.401 16 7.815ZM17 4C17.1981 3.9998 17.3917 4.05837 17.5565 4.16828C17.7213 4.2782 17.8497 4.43452 17.9256 4.61747C18.0015 4.80042 18.0214 5.00177 17.9828 5.19604C17.9442 5.39031 17.8489 5.56876 17.7088 5.70881C17.5688 5.84887 17.3903 5.94422 17.196 5.98281C17.0018 6.02141 16.8004 6.0015 16.6175 5.92561C16.4345 5.84972 16.2782 5.72127 16.1683 5.5565C16.0584 5.39174 15.9998 5.19806 16 5C16 4.449 16.448 4 17 4ZM17.935 16.164C17.525 13.251 15.024 11 12 11C11.0768 10.999 10.1823 10.679 9.46798 10.0943C8.75363 9.50947 8.2633 8.69581 8.08 7.791C8.64397 7.57338 9.12904 7.19047 9.47165 6.69244C9.81425 6.19441 9.99842 5.60449 10 5C10 3.346 8.654 2 7 2C5.346 2 4 3.346 4 5C4 6.326 4.87 7.44 6.065 7.836C6.475 10.749 8.976 13 12 13C12.9232 13.001 13.8177 13.321 14.532 13.9057C15.2464 14.4905 15.7367 15.3042 15.92 16.209C15.356 16.4266 14.871 16.8095 14.5284 17.3076C14.1857 17.8056 14.0016 18.3955 14 19C14 20.654 15.346 22 17 22C18.654 22 20 20.654 20 19C20 17.674 19.13 16.56 17.935 16.164ZM7 4C7.19806 3.9998 7.39174 4.05837 7.5565 4.16828C7.72127 4.2782 7.84972 4.43452 7.92561 4.61747C8.0015 4.80042 8.02141 5.00177 7.98281 5.19604C7.94422 5.39031 7.84887 5.56876 7.70881 5.70881C7.56876 5.84887 7.39031 5.94422 7.19604 5.98281C7.00177 6.02141 6.80042 6.0015 6.61747 5.92561C6.43452 5.84972 6.2782 5.72127 6.16828 5.5565C6.05837 5.39174 5.9998 5.19806 6 5C6 4.449 6.448 4 7 4ZM17 20C16.7425 19.9885 16.4994 19.8781 16.3213 19.6918C16.1431 19.5055 16.0437 19.2577 16.0437 19C16.0437 18.7423 16.1431 18.4945 16.3213 18.3082C16.4994 18.1219 16.7425 18.0115 17 18C17.2575 18.0115 17.5006 18.1219 17.6787 18.3082C17.8569 18.4945 17.9563 18.7423 17.9563 19C17.9563 19.2577 17.8569 19.5055 17.6787 19.6918C17.5006 19.8781 17.2575 19.9885 17 20Z" fill="black"/>
</svg>
